<svg xmlns="http://www.w3.org/2000/svg" width="48" height="48"><radialGradient id="a" cx="24" cy="10.009" r="32.252" gradientUnits="userSpaceOnUse"><stop offset="0" stop-color="#8c9eff"/><stop offset=".368" stop-color="#889af8"/><stop offset=".889" stop-color="#7e8fe6"/><stop offset="1" stop-color="#7b8ce1"/></radialGradient><path fill="url(#a)" d="M40.107 12.15a.94.94 0 00-.236-.255c-.769-.578-4.671-3.339-9.665-3.875a1.148 1.148 0 00-.057-.003.25.25 0 00-.224.14l-.269.538h-.001a.25.25 0 00.142.347l.063.014c4.267 1.028 6.863 2.89 9.149 4.945C34.962 11.935 30.965 10 24 10s-10.961 1.936-15.009 4.001c2.286-2.055 4.882-3.917 9.149-4.945l.063-.014a.25.25 0 00.142-.347h-.001l-.269-.538a.249.249 0 00-.224-.14l-.057.003c-4.994.536-8.896 3.297-9.665 3.875a.956.956 0 00-.236.255c-.708 1.107-5.049 8.388-5.892 21.632a.548.548 0 00.135.395C6.728 39.321 13.318 39.929 14.724 40a.5.5 0 00.427-.199l1.282-1.709a.244.244 0 00-.111-.379c-2.705-.986-5.717-2.7-8.332-5.706C11.231 34.457 16.12 37 24 37s12.769-2.543 16.009-4.993c-2.616 3.006-5.627 4.719-8.332 5.706a.244.244 0 00-.111.379l1.282 1.709a.5.5 0 00.427.199c1.407-.072 7.996-.679 12.588-5.823a.548.548 0 00.135-.395c-.842-13.244-5.183-20.525-5.891-21.632z"/><ellipse cx="30.5" cy="26" opacity=".05" rx="4.5" ry="5"/><ellipse cx="30.5" cy="26" opacity=".05" rx="4" ry="4.5"/><ellipse cx="30.5" cy="26" fill="#fff" rx="3.5" ry="4"/><ellipse cx="17.5" cy="26" opacity=".05" rx="4.5" ry="5"/><ellipse cx="17.5" cy="26" opacity=".05" rx="4" ry="4.5"/><ellipse cx="17.5" cy="26" fill="#fff" rx="3.5" ry="4"/></svg>