<svg xmlns="http://www.w3.org/2000/svg" width="48" height="48"><linearGradient id="a" x1="6" x2="42" y1="41" y2="41" gradientUnits="userSpaceOnUse"><stop offset="0" stop-color="#c8d3de"/><stop offset="1" stop-color="#c8d3de"/></linearGradient><path fill="url(#a)" d="M42 39H6v2a2 2 0 002 2h32a2 2 0 002-2v-2z"/><linearGradient id="b" x1="14.095" x2="31.385" y1="10.338" y2="43.787" gradientUnits="userSpaceOnUse"><stop offset="0" stop-color="#fcfcfc"/><stop offset=".495" stop-color="#f4f4f4"/><stop offset=".946" stop-color="#e8e8e8"/><stop offset="1" stop-color="#e8e8e8"/></linearGradient><path fill="url(#b)" d="M42 39H6V20L24 3l18 17v19z"/><path fill="#de490d" d="M13 25h10a1 1 0 011 1v17H12V26a1 1 0 011-1z"/><path d="M24 4c-.474 0-.948.168-1.326.503l-5.359 4.811L6 20v5.39L24 9.428 42 25.39V20L30.685 9.314l-5.359-4.811A1.995 1.995 0 0024 4z" opacity=".05"/><path d="M24 3c-.474 0-.948.167-1.326.5l-5.359 4.784L6 18.909v5.359L24 8.397l18 15.871v-5.359L30.685 8.284 25.326 3.5A2.002 2.002 0 0024 3z" opacity=".07"/><linearGradient id="c" x1="24" x2="24" y1="1.684" y2="23.696" gradientUnits="userSpaceOnUse"><stop offset="0" stop-color="#d43a02"/><stop offset="1" stop-color="#b9360c"/></linearGradient><path fill="url(#c)" d="M44.495 19.507L25.326 2.503a1.995 1.995 0 00-2.652 0L3.505 19.507a.999.999 0 00-.064 1.43l1.636 1.745a1 1 0 001.39.067L24 7.428 41.533 22.75a1 1 0 001.39-.067l1.636-1.745a1 1 0 00-.064-1.431z"/><linearGradient id="d" x1="28.05" x2="35.614" y1="25.05" y2="32.614" gradientUnits="userSpaceOnUse"><stop offset="0" stop-color="#33bef0"/><stop offset="1" stop-color="#0a85d9"/></linearGradient><path fill="url(#d)" d="M29 25h6a1 1 0 011 1v6a1 1 0 01-1 1h-6a1 1 0 01-1-1v-6a1 1 0 011-1z"/></svg>