<svg height="512" width="512" xmlns="http://www.w3.org/2000/svg"><path d="M250.585 271.874c68.566-.811 120.299-28.097 142.106-91.593 21.911-61.671 16.332-118.676-44.63-142.311-39.457-15.316-52.441-11.563-206.923-11.563-10.042 0-18.765 7.405-20.288 17.142L61.412 420.778c-1.014 7.404 4.564 14.099 12.272 14.099h75.669c2.029 0 2.738-.708 3.043-2.534 4.158-25.664 18.259-116.447 21.808-135.922 5.885-31.647 32.359-23.835 76.381-24.547z" fill="#002d8a"/><path d="M423.427 150.46c-1.826-1.319-2.536-1.827-3.043 1.317-2.029 11.565-5.173 22.823-8.927 34.083C370.985 301.29 258.8 291.249 204.026 291.249c-6.188 0-10.245 3.348-11.057 9.534-22.923 142.411-27.488 172.131-27.488 172.131-1.015 7.202 3.55 13.085 10.752 13.085h64.41c8.723 0 15.925-6.391 17.65-15.112.709-5.479-1.115 6.187 14.606-92.609 4.665-22.314 14.504-19.98 29.719-19.98 72.019 0 128.211-29.214 144.948-113.91 6.595-35.3 4.668-72.425-24.139-93.928z" fill="#019be1"/></svg>