<svg xmlns="http://www.w3.org/2000/svg" viewBox="0 0 48 48" width="48px" height="48px"><linearGradient id="P~bwnewFlRlVujIMP1ntQa" x1="14.871" x2="33.453" y1="6.199" y2="42.353" gradientTransform="translate(.108 .317)" gradientUnits="userSpaceOnUse"><stop offset="0" stop-color="#f44f5a"/><stop offset=".443" stop-color="#ee3d4a"/><stop offset="1" stop-color="#e52030"/></linearGradient><path fill="url(#P~bwnewFlRlVujIMP1ntQa)" d="M44,23.981C44.011,35.026,35.064,43.989,24.019,44C12.974,44.011,4.011,35.064,4,24.019	C3.989,12.974,12.936,4.011,23.981,4C35.026,3.989,43.989,12.936,44,23.981z"/><path d="M37.773,22.968c0-7.156-5.73-12.552-13.33-12.552c-9.767,0-14.215,6.792-14.215,13.104	c0,3.148,1.625,7.252,4.637,8.655c0.486,0.227,0.93,0.244,1.321,0.055c0.261-0.126,0.603-0.403,0.742-0.995l0.556-2.269	c0.126-0.529,0.013-1.014-0.339-1.442c-0.626-0.76-1.261-2.354-1.261-3.93c0-3.723,2.814-7.68,8.03-7.68	c4.33,0,7.354,2.935,7.354,7.137c0,4.727-2.224,8.158-5.287,8.158c-0.682,0-1.29-0.274-1.668-0.752	c-0.351-0.444-0.464-1.023-0.321-1.631c0.196-0.826,0.465-1.694,0.724-2.534c0.494-1.598,0.96-3.107,0.96-4.355	c0-2.283-1.419-3.816-3.53-3.816c-2.59,0-4.618,2.572-4.618,5.856c0,1.413,0.343,2.517,0.55,3.056	c-0.365,1.544-1.949,8.249-2.27,9.627c-0.384,1.64-0.307,3.804-0.148,5.501c1.094,0.503,2.24,0.906,3.43,1.207	c0.772-1.279,1.971-3.439,2.442-5.249c0.132-0.508,0.488-1.866,0.786-3.001c1.098,0.794,2.585,1.291,4.076,1.291	C32.882,36.408,37.773,30.63,37.773,22.968z" opacity=".05"/><path d="M37.273,22.968c0-6.871-5.516-12.052-12.83-12.052c-9.423,0-13.715,6.533-13.715,12.604	c0,3.036,1.626,6.934,4.349,8.202c0.127,0.06,0.516,0.241,0.892,0.059c0.238-0.116,0.398-0.339,0.474-0.662l0.555-2.268	c0.089-0.374,0.012-0.704-0.239-1.008c-0.809-0.982-1.375-2.729-1.375-4.248c0-3.965,2.99-8.18,8.53-8.18	c4.624,0,7.854,3.14,7.854,7.637c0,5.017-2.434,8.658-5.787,8.658c-0.835,0-1.586-0.343-2.06-0.942	c-0.448-0.566-0.595-1.297-0.415-2.057c0.2-0.842,0.471-1.718,0.733-2.566c0.482-1.561,0.938-3.035,0.938-4.208	c0-1.984-1.218-3.316-3.03-3.316c-2.309,0-4.118,2.353-4.118,5.356c0,1.493,0.399,2.605,0.573,3.018	c-0.279,1.18-1.973,8.348-2.306,9.779c-0.391,1.675-0.282,3.944-0.107,5.641c0.773,0.328,1.577,0.594,2.396,0.824	c0.752-1.233,1.993-3.435,2.464-5.245c0.164-0.63,0.671-2.563,0.986-3.762c1.014,1.009,2.681,1.678,4.36,1.678	C32.597,35.908,37.273,30.345,37.273,22.968z" opacity=".07"/><path fill="#fff" d="M24.443,11.417c-8.632,0-13.215,5.795-13.215,12.103c0,2.933,1.562,6.585,4.06,7.748 c0.378,0.177,0.582,0.1,0.668-0.267c0.067-0.278,0.403-1.637,0.555-2.268c0.048-0.202,0.025-0.375-0.138-0.573 c-0.827-1.003-1.488-2.847-1.488-4.565c0-4.412,3.34-8.68,9.03-8.68c4.913,0,8.353,3.348,8.353,8.137 c0,5.41-2.732,9.158-6.287,9.158c-1.963,0-3.433-1.623-2.962-3.615c0.565-2.377,1.657-4.942,1.657-6.658 c0-1.535-0.823-2.817-2.53-2.817c-2.007,0-3.618,2.075-3.618,4.857c0,1.77,0.598,2.968,0.598,2.968s-1.982,8.382-2.345,9.942 c-0.402,1.722-0.246,4.141-0.071,5.723c0.451,0.177,0.902,0.354,1.369,0.499c0.817-1.328,2.034-3.506,2.486-5.242 c0.243-0.937,1.247-4.755,1.247-4.755c0.652,1.243,2.557,2.297,4.583,2.297c6.032,0,10.378-5.547,10.378-12.44 C36.773,16.36,31.382,11.417,24.443,11.417z"/></svg>