<svg xmlns="http://www.w3.org/2000/svg" width="48" height="48"><path fill="#64717c" d="M24 18a1 1 0 01-1-1c0-2.815.36-12 5-12 1.173 0 2.037.676 2.872 1.331C31.919 7.151 33.002 8 35 8h4a1 1 0 010 2h-4c-2.688 0-4.233-1.211-5.362-2.095C28.922 7.344 28.46 7 28 7c-1.738 0-3 4.206-3 10a1 1 0 01-1 1z"/><radialGradient id="a" cx="36.257" cy="27.553" r="11.69" gradientUnits="userSpaceOnUse"><stop offset="0" stop-color="#bbc1c4"/><stop offset=".652" stop-color="#bbc1c4"/><stop offset=".74" stop-color="#c1c7c9"/><stop offset=".861" stop-color="#d3d6d8"/><stop offset="1" stop-color="#f0f0f0"/></radialGradient><circle cx="40" cy="22" r="5" fill="url(#a)"/><radialGradient id="b" cx="36.257" cy="27.553" r="11.69" gradientTransform="matrix(-1 0 0 1 48 0)" gradientUnits="userSpaceOnUse"><stop offset="0" stop-color="#bbc1c4"/><stop offset=".652" stop-color="#bbc1c4"/><stop offset=".74" stop-color="#c1c7c9"/><stop offset=".861" stop-color="#d3d6d8"/><stop offset="1" stop-color="#f0f0f0"/></radialGradient><circle cx="8" cy="22" r="5" fill="url(#b)"/><linearGradient id="c" x1="24" x2="24" y1="14.955" y2="42.955" gradientUnits="userSpaceOnUse"><stop offset="0" stop-color="#f0f0f0"/><stop offset="1" stop-color="#bbc1c4"/></linearGradient><ellipse cx="24" cy="29" fill="url(#c)" rx="19" ry="14"/><path fill="#d43a02" d="M30 23a2.999 2.999 0 10-.002 5.998H30A2.999 2.999 0 1030.002 23H30zM18 23a2.999 2.999 0 10-.002 5.998H18A2.999 2.999 0 1018.002 23H18z"/><path fill="#64717c" d="M24.002 34.902c-3.252 0-6.14-.745-8.002-1.902 1.024 2.044 4.196 4 8.002 4 3.802 0 6.976-1.956 7.998-4-1.857 1.157-4.746 1.902-7.998 1.902z"/><linearGradient id="d" x1="36.995" x2="41.392" y1="6.995" y2="11.392" gradientUnits="userSpaceOnUse"><stop offset="0" stop-color="#f0f0f0"/><stop offset="1" stop-color="#bbc1c4"/></linearGradient><circle cx="39" cy="9" r="3" fill="url(#d)"/></svg>